<svg width="194" height="284" viewBox="0 0 194 284" fill="none" xmlns="http://www.w3.org/2000/svg">
<path d="M0.5 0.5H0.886313H1.32833H1.7696H2.21012H2.64989H3.08892H3.52721H3.96475H4.40157H4.83765H5.273H5.70763H6.14153H6.57471H7.00718H7.43893H7.86997H8.3003H8.72993H9.15885H9.58708H10.0146H10.4414H10.8676H11.293H11.7178H12.1419H12.5653H12.9881H13.4101H13.8315H14.2522H14.6723H15.0917H15.5105H15.9285H16.346H16.7628H17.1789H17.5944H18.0093H18.4235H18.8371H19.2501H19.6624H20.0741H20.4852H20.8957H21.3055H21.7148H22.1234H22.5314H22.9388H23.3456H23.7519H24.1575H24.5625H24.9669H25.3708H25.7741H26.1768H26.5789H26.9804H27.3814H27.7818H28.1816H28.5809H28.9796H29.3778H29.7754H30.1724H30.5689H30.9649H31.3603H31.7552H32.1495H32.5433H32.9366H33.3294H33.7216H34.1133H34.5045H34.8952H35.2853H35.675H36.0642H36.4528H36.841H37.2286H37.6158H38.0024H38.3886H38.7743H39.1595H39.5442H39.9285H40.3123H40.6956H41.0784H41.4608H41.8427H42.2242H42.6052H42.9858H43.3659H43.7455H44.1247H44.5035H44.8818H45.2597H45.6372H46.0143H46.3909H46.7671H47.1428H47.5182H47.8931H48.2677H48.6418H49.0155H49.3888H49.7618H50.1343H50.5064H50.8782H51.2495H51.6205H51.9911H52.3613H52.7311H53.1006H53.4697H53.8384H54.2068H54.5748H54.9424H55.3097H55.6767H56.0433H56.4095H56.7754H57.141H57.5062H57.8711H58.2357H58.5999H58.9639H59.3275H59.6907H60.0537H60.4164H60.7787H61.1407H61.5025H61.8639H62.225H62.5859H62.9464H63.3067H63.6666H64.0263H64.3857H64.7449H65.1037H65.4623H65.8206H66.1787H66.5365H66.894H67.2513H67.6083H67.9651H68.3216H68.6779H69.034H69.3898H69.7453H70.1007H70.4558H70.8107H71.1653H71.5198H71.874H72.228H72.5818H72.9354H73.2888H73.6419H73.9949H74.3477H74.7003H75.0527H75.4049H75.7569H76.1088H76.4605H76.812H77.1633H77.5144H77.8654H78.2162H78.5669H78.9174H79.2677H79.6179H79.968H80.3179H80.6676H81.0173H81.3667H81.7161H82.0653H82.4144H82.7634H83.1122H83.4609H83.8095H84.158H84.5064H84.8547H85.2029H85.5509H85.8989H86.2468H86.5946H86.9423H87.2899H87.6374H87.9848H88.3322H88.6795H89.0267H89.3739H89.721H90.068H90.415H90.7619H91.1087H91.4556H91.8023H92.149H92.4957H92.8423H93.1889H93.5355H93.882H94.2285H94.575H94.9215H95.2679H95.6144H95.9608H96.3072H96.6536H97H97.3464H97.6928H98.0392H98.3856H98.7321H99.0785H99.425H99.7715H100.118H100.465H100.811H101.158H101.504H101.851H102.198H102.544H102.891H103.238H103.585H103.932H104.279H104.626H104.973H105.32H105.668H106.015H106.363H106.71H107.058H107.405H107.753H108.101H108.449H108.797H109.145H109.494H109.842H110.19H110.539H110.888H111.237H111.586H111.935H112.284H112.633H112.983H113.332H113.682H114.032H114.382H114.732H115.083H115.433H115.784H116.135H116.486H116.837H117.188H117.54H117.891H118.243H118.595H118.947H119.3H119.652H120.005H120.358H120.711H121.065H121.418H121.772H122.126H122.48H122.835H123.189H123.544H123.899H124.255H124.61H124.966H125.322H125.678H126.035H126.392H126.749H127.106H127.464H127.821H128.179H128.538H128.896H129.255H129.614H129.974H130.333H130.693H131.054H131.414H131.775H132.136H132.498H132.859H133.221H133.584H133.946H134.309H134.673H135.036H135.4H135.764H136.129H136.494H136.859H137.225H137.59H137.957H138.323H138.69H139.058H139.425H139.793H140.162H140.53H140.899H141.269H141.639H142.009H142.38H142.75H143.122H143.494H143.866H144.238H144.611H144.984H145.358H145.732H146.107H146.482H146.857H147.233H147.609H147.986H148.363H148.74H149.118H149.496H149.875H150.254H150.634H151.014H151.395H151.776H152.157H152.539H152.922H153.304H153.688H154.072H154.456H154.84H155.226H155.611H155.998H156.384H156.771H157.159H157.547H157.936H158.325H158.715H159.105H159.495H159.887H160.278H160.671H161.063H161.457H161.85H162.245H162.64H163.035H163.431H163.828H164.225H164.622H165.02H165.419H165.818H166.218H166.619H167.02H167.421H167.823H168.226H168.629H169.033H169.437H169.843H170.248H170.654H171.061H171.469H171.877H172.285H172.694H173.104H173.515H173.926H174.338H174.75H175.163H175.576H175.991H176.406H176.821H177.237H177.654H178.071H178.49H178.908H179.328H179.748H180.168H180.59H181.012H181.435H181.858H182.282H182.707H183.132H183.559H183.985H184.413H184.841H185.27H185.7H186.13H186.561H186.993H187.425H187.858H188.292H188.727H189.162H189.598H190.035H190.473H190.911H191.35H191.79H192.23H192.672H193.114H193.5V283.5H0.5V0.5Z" stroke="white"/>
</svg>
